<?xml version="1.0" encoding="utf-8"?>
<!-- Generator: Adobe Illustrator 17.0.0, SVG Export Plug-In . SVG Version: 6.00 Build 0)  -->
<!DOCTYPE svg PUBLIC "-//W3C//DTD SVG 1.1//EN" "http://www.w3.org/Graphics/SVG/1.1/DTD/svg11.dtd">
<svg version="1.1" id="Layer_1" xmlns="http://www.w3.org/2000/svg" xmlns:xlink="http://www.w3.org/1999/xlink" x="0px" y="0px"
	 width="1890.916px" height="465.558px" viewBox="0 -480.049 1890.916 465.558"
	 enable-background="new 0 -480.049 1890.916 465.558" xml:space="preserve">
<g>
	<path fill="#FFFFFF" d="M223.691-439.136c0.756,0.651,1.485,1.338,2.172,2.062c37.211,39.209,47.684,86.111,38.824,138.108
		c-3.526,20.693-14.638,38.426-25.55,55.988c-27.813,44.762-59.236,86.976-91.813,128.311
		c-24.529,31.122-49.78,61.682-75.046,92.214c-8.381,10.127-21.295,10.459-30.979,1.768C30.393-30.473,19.543-40.322,8.726-50.208
		C-2.305-60.29-2.926-73.001,7.142-83.996c15.517-16.947,32.25-32.921,46.463-50.893c32.535-41.141,63.94-83.177,95.641-124.974
		c20.041-26.422,39.045-53.545,53.52-83.547c10.766-22.315,19.415-45.3,20.888-70.335c0.501-8.516,0.079-17.087,0.079-25.399
		C223.097-439.315,223.476-439.321,223.691-439.136z"/>
	<path fill="#FFFFFF" d="M17.251-266.249c-7.276-15.078-12.477-30.838-14.767-47.45c-4.332-31.421,2.49-60.896,16.273-88.984
		c6.609-13.468,15.302-25.55,26.677-36.943c-0.165,2.264-0.327,3.5-0.334,4.738c-0.057,9.618-0.945,19.325,0.05,28.835
		c2.526,24.138,11.475,46.365,22.065,67.977c15.016,30.644,34.843,58.215,54.762,85.727c1.238,1.71,2.408,3.469,3.652,5.267
		c-17.59,23.363-34.907,46.362-52.757,70.071C52.808-206.583,32.434-234.79,17.251-266.249z"/>
	<path fill="#E0E0E0" d="M56.389-428.793c1.358-19.181,9.571-34.109,27.915-41.381c32.589-12.918,65.707-13.247,98.353-0.483
		c14.853,5.808,24.507,17.187,27.784,33.474c3.889,19.327-1.887,37.567-5.158,56.611c-47.511-21.085-94.773-22.296-142.766-1.302
		C59.559-397.79,55.266-412.913,56.389-428.793z"/>
	<path fill="#FFFFFF" d="M195.785-151.871c10.8,12.884,21.471,25.878,32.431,38.623c9.225,10.728,18.889,21.078,28.169,31.76
		c8.72,10.037,8.035,21.685-1.66,30.558c-10.93,10.004-21.917,19.948-32.977,29.809c-8.996,8.021-20.728,7.769-29.152-0.767
		c-4.668-4.73-9.099-9.734-13.258-14.918c-13.119-16.352-26.059-32.847-39.115-49.346c17.738-23.088,35.237-45.867,52.886-68.84
		C194.077-153.864,194.942-152.877,195.785-151.871z"/>
</g>
<g enable-background="new    ">
	<path fill="#FFFFFF" d="M631.653-258.834c0,39.911-11.364,74.423-34.086,103.537c-24.712,31.672-56.385,47.507-95.014,47.507
		c-7.387,0-18.501-0.283-33.34-0.853c-14.843-0.565-25.958-0.852-33.34-0.852c-6.677,0-16.724,0.286-30.145,0.852
		c-13.421,0.569-23.471,0.853-30.145,0.853c-3.552,0-5.326-1.774-5.326-5.326c0-15.479,0.603-38.843,1.811-70.089
		c1.205-31.243,1.811-54.677,1.811-70.302c0-16.474-0.569-41.256-1.705-74.35c-1.138-33.091-1.704-57.873-1.704-74.35
		c0-2.982,1.844-4.474,5.539-4.474c5.253,0,13.102,0.073,23.541,0.213c10.438,0.144,18.284,0.213,23.541,0.213
		c4.827,0,12.213-0.07,22.156-0.213c9.939-0.14,17.469-0.213,22.582-0.213c49.281,0,85.994,9.304,110.14,27.908
		c17.326,13.352,30.747,31.316,40.264,53.898C627.18-303.854,631.653-281.842,631.653-258.834z M579.459-258.834
		c0-30.677-8.734-55.672-26.204-74.989c-18.181-20.025-42.468-30.039-72.858-30.039c-25.139,0-35.294-0.14-30.464-0.426
		c-16.617,0.852-24.925,3.908-24.925,9.161c0,10.938-0.25,27.305-0.746,49.105c-0.499,21.803-0.746,38.17-0.746,49.105
		c0,10.795,0.247,26.986,0.746,48.572c0.496,21.59,0.746,37.781,0.746,48.572c0,5.399,8.521,8.521,25.564,9.374
		c-2.274-0.14,8.095-0.213,31.103-0.213c16.331,0,29.326-1.704,38.986-5.113c11.93-4.261,22.652-12.143,32.169-23.646
		C570.582-200.957,579.459-227.444,579.459-258.834z"/>
	<path fill="#FFFFFF" d="M929.692-110.347c0,1.704-1.704,2.557-5.112,2.557c-2.7,0-6.642-0.213-11.824-0.639
		c-5.186-0.427-9.127-0.64-11.823-0.64c-2.699,0-6.747,0.213-12.144,0.64c-5.398,0.426-9.446,0.639-12.143,0.639
		c-3.978,0-9.055-10.759-15.232-32.275s-12.463-32.415-18.854-32.701c-5.256-0.282-18.961-0.426-41.116-0.426h-33.66
		c-23.434,0-36.785,0.144-40.051,0.426c-5.113,0.427-10.545,11.364-16.297,32.808c-5.752,21.447-10.192,32.169-13.315,32.169
		h-47.933c-2.843,0-4.261-0.992-4.261-2.982c0-1.418,0.992-4.613,2.982-9.587l52.194-142.735
		c4.401-11.504,17.752-44.665,40.051-99.488c3.975-9.087,9.374-22.795,16.191-41.116c1.704-5.396,3.548-8.095,5.539-8.095
		c2.696,0,6.674,0.356,11.93,1.065c5.253,0.712,9.23,1.065,11.93,1.065c2.557,0,6.425-0.39,11.611-1.172
		c5.183-0.779,8.98-1.171,11.397-1.171c1.278,0,3.052,2.629,5.325,7.882c3.409,7.956,20.239,50.776,50.49,128.461
		C908.315-166.446,929.692-111.339,929.692-110.347z M830.417-227.943c0-4.118-6.391-22.582-19.173-55.39
		c-12.356-31.813-21.091-52.69-26.204-62.633c-29.398,74.989-44.099,114.261-44.099,117.809c0,4.83,5.396,7.669,16.191,8.521
		c0.565,0.144,7.525,0.213,20.877,0.213h21.943C820.262-219.422,830.417-222.261,830.417-227.943z"/>
	<path fill="#FFFFFF" d="M1049.419-393.047c0,0.712-0.286,2.417-0.853,5.113c-8.947,33.66-22.016,84.149-39.198,151.469
		c-5.539,21.873-13.777,55.603-24.713,101.193c-2.273,10.938-6.107,27.056-11.504,48.359c-0.995,2.839-2.203,4.261-3.621,4.261
		c-18.747-7.53-28.761-11.718-30.039-12.569c-0.569-0.286-0.853-0.995-0.853-2.131c0-1.421,0.426-3.481,1.278-6.178
		c9.656-33.233,23.148-85.285,40.477-156.156c7.384-32.095,19.03-80.102,34.938-144.013c0.853-2.839,1.987-4.261,3.408-4.261
		c0.992,0,6.354,2.167,16.085,6.498C1044.553-397.128,1049.419-394.325,1049.419-393.047z"/>
	<path fill="#FFFFFF" d="M1347.245-112.69c0,3.269-2.131,4.899-6.392,4.899c-2.416,0-6.145-0.213-11.185-0.639
		c-5.043-0.427-8.841-0.64-11.397-0.64c-2.699,0-6.783,0.213-12.249,0.64c-5.47,0.426-9.554,0.639-12.25,0.639
		c-3.269,0-4.899-1.631-4.899-4.899c0-12.782,0.389-31.956,1.171-57.521c0.779-25.564,1.172-44.738,1.172-57.52
		c0-5.539-1.634-8.734-4.899-9.586c-4.261-1.135-28.833-1.705-73.711-1.705c-44.738,0-69.311,0.569-73.711,1.705
		c-3.126,0.852-4.687,4.047-4.687,9.586c0,12.5,0.353,31.317,1.065,56.455c0.709,25.139,1.064,43.959,1.064,56.455
		c0,4.687-1.777,7.03-5.326,7.03c-2.699,0-6.747-0.213-12.143-0.639c-5.399-0.427-9.447-0.64-12.144-0.64
		c-2.556,0-6.357,0.213-11.397,0.64c-5.043,0.426-8.841,0.639-11.397,0.639c-3.552,0-5.325-1.631-5.325-4.899
		c0-15.622,0.745-39.093,2.236-70.409s2.237-54.784,2.237-70.409c0-16.474-0.746-41.223-2.237-74.244
		c-1.491-33.021-2.236-57.766-2.236-74.243c0-3.123,1.773-4.687,5.325-4.687c2.557,0,6.461,0.213,11.718,0.639
		c5.252,0.426,9.23,0.639,11.93,0.639c2.557,0,6.531-0.213,11.93-0.639c5.396-0.426,9.374-0.639,11.931-0.639
		c3.266,0,4.899,1.278,4.899,3.834c0,12.217-0.532,30.571-1.598,55.07c-1.065,24.5-1.598,42.857-1.598,55.07
		c0,3.978,1.491,6.391,4.474,7.243c3.549,1.278,28.547,1.917,74.989,1.917c45.446,0,70.302-0.639,74.563-1.917
		c3.266-0.852,4.9-3.905,4.9-9.161c0-11.93-0.393-29.895-1.172-53.898c-0.782-24-1.172-41.968-1.172-53.898
		c0-2.839,1.631-4.261,4.9-4.261c2.696,0,6.637,0.213,11.823,0.639c5.183,0.426,9.124,0.639,11.823,0.639
		c2.557,0,6.392-0.213,11.504-0.639c5.113-0.426,8.948-0.639,11.505-0.639c3.691,0,5.538,1.564,5.538,4.687
		c0,16.477-0.712,41.223-2.13,74.243c-1.422,33.021-2.131,57.77-2.131,74.244c0,15.625,0.779,39.092,2.344,70.409
		C1346.463-151.783,1347.245-128.312,1347.245-112.69z"/>
	<path fill="#FFFFFF" d="M1625.898-157.002c0,1.705-1.352,4.121-4.048,7.243c-27.694,32.1-61.993,48.146-102.896,48.146
		c-42.607,0-76.693-15.552-102.258-46.654c-23.86-28.974-35.79-65.19-35.79-108.649s12.143-79.815,36.429-109.075
		c25.848-31.529,60.004-47.294,102.471-47.294c43.034,0,76.338,14.56,99.915,43.672c2.27,2.983,3.408,5.469,3.408,7.457
		c0,2.417-3.765,9.553-11.291,21.41c-7.529,11.86-12.073,17.789-13.634,17.789c-1.848,0-6.179-3.479-12.996-10.439
		c-8.381-8.521-16.264-14.913-23.646-19.173c-12.217-6.957-25.708-10.438-40.478-10.438c-28.121,0-49.993,10.725-65.615,32.168
		c-13.921,19.173-20.878,43.32-20.878,72.433c0,29.116,6.888,53.473,20.665,73.071c15.621,22.017,37.421,33.021,65.402,33.021
		c13.917,0,27.339-3.479,40.264-10.439c8.521-4.543,17.183-11.005,25.991-19.386c7.383-6.957,11.431-10.439,12.143-10.439
		c0.853,0,5.539,5.646,14.061,16.937S1625.898-158.137,1625.898-157.002z"/>
	<path fill="#FFFFFF" d="M1890.916-296.328c0,33.377-9.021,60.077-27.057,80.102c-18.607,20.595-44.385,30.89-77.332,30.89
		c-8.096,0-20.345-0.319-36.749-0.958c-16.403-0.64-28.727-0.959-36.962-0.959c-4.547,0-6.817,2.913-6.817,8.734
		c0,7.529,0.46,18.82,1.385,33.873c0.923,15.056,1.385,26.347,1.385,33.873c0,2.417-1.352,3.621-4.048,3.621
		c-2.982,0-7.492-0.319-13.527-0.958c-6.038-0.64-10.545-0.959-13.528-0.959c-2.556,0-6.321,0.213-11.291,0.64
		c-4.973,0.426-8.664,0.639-11.077,0.639c-3.552,0-5.326-2.2-5.326-6.604c0-15.479,0.672-38.843,2.023-70.089
		c1.349-31.243,2.024-54.677,2.024-70.302c0-44.312-1.635-91.889-4.9-142.735l-0.213-3.195c-0.143-3.123,1.704-4.687,5.539-4.687
		c7.669,0,19.207,0.073,34.618,0.213c15.409,0.143,27.02,0.213,34.832,0.213c6.674,0,16.687-0.283,30.038-0.853
		c13.349-0.566,23.361-0.852,30.038-0.852c31.387,0,57.164,10.652,77.333,31.956
		C1881.043-353.848,1890.916-327.715,1890.916-296.328z M1837.231-293.133c0-21.304-5.752-38.347-17.256-51.129
		c-11.931-13.348-28.407-20.025-49.425-20.025c-6.534,0-18.182,0.569-34.938,1.704c-19.173,1.139-29.046,2.273-29.612,3.409
		c-0.995,1.704-1.491,26.134-1.491,73.285c0,5.965,0.177,14.913,0.533,26.843c0.353,11.93,0.532,20.877,0.532,26.843
		c0,1.278,1.562,2.273,4.687,2.982c7.81,1.564,29.47,2.343,64.977,2.343c19.883,0,35.364-6.178,46.442-18.534
		C1832.044-257.199,1837.231-273.107,1837.231-293.133z"/>
</g>
</svg>
